<mxfile host="app.diagrams.net" agent="Mozilla/5.0 (Macintosh; Intel Mac OS X 10_15_7) AppleWebKit/537.36 (KHTML, like Gecko) Chrome/131.0.0.0 Safari/537.36" version="26.0.10">
  <diagram name="Page-1" id="c4acf3e9-155e-7222-9cf6-157b1a14988f">
    <mxGraphModel dx="2074" dy="761" grid="1" gridSize="10" guides="1" tooltips="1" connect="1" arrows="1" fold="1" page="1" pageScale="1" pageWidth="850" pageHeight="1100" background="none" math="0" shadow="0">
      <root>
        <mxCell id="0" />
        <mxCell id="1" parent="0" />
        <mxCell id="17acba5748e5396b-1" value="frame" style="shape=umlFrame;whiteSpace=wrap;html=1;rounded=0;shadow=0;comic=0;labelBackgroundColor=none;strokeWidth=1;fontFamily=Verdana;fontSize=10;align=center;dashed=1;" parent="1" vertex="1">
          <mxGeometry x="20" y="20" width="820" height="1060" as="geometry" />
        </mxCell>
        <mxCell id="17acba5748e5396b-20" value="&lt;font style=&quot;font-size: 12px;&quot; face=&quot;Helvetica&quot;&gt;JobController&lt;/font&gt;" style="swimlane;html=1;fontStyle=0;childLayout=stackLayout;horizontal=1;startSize=26;fillColor=none;horizontalStack=0;resizeParent=1;resizeLast=0;collapsible=1;marginBottom=0;swimlaneFillColor=#ffffff;rounded=0;shadow=0;comic=0;labelBackgroundColor=none;strokeWidth=1;fontFamily=Verdana;fontSize=10;align=center;" parent="1" vertex="1">
          <mxGeometry x="310" y="80" width="250" height="180" as="geometry">
            <mxRectangle x="355" y="87" width="90" height="30" as="alternateBounds" />
          </mxGeometry>
        </mxCell>
        <mxCell id="17acba5748e5396b-21" value="- currentJob: Job&lt;div&gt;- jobOffers: List &amp;lt;Job&amp;gt;&lt;/div&gt;&lt;div&gt;+ enterCurrentJob()&lt;/div&gt;&lt;div&gt;+ saveCurrentJob()&lt;/div&gt;&lt;div&gt;+ addJobOffer()&lt;/div&gt;&lt;div&gt;+ getJobOffers(): List&lt;/div&gt;&lt;div&gt;+&amp;nbsp;&lt;span style=&quot;text-wrap-mode: nowrap; background-color: transparent; color: light-dark(rgb(0, 0, 0), rgb(255, 255, 255));&quot;&gt;ComparisonSettings:&amp;nbsp;&lt;/span&gt;&lt;span style=&quot;text-wrap-mode: nowrap; background-color: transparent; color: light-dark(rgb(0, 0, 0), rgb(255, 255, 255));&quot;&gt;ComparisonSettings&lt;/span&gt;&lt;/div&gt;" style="text;html=1;strokeColor=none;fillColor=none;align=left;verticalAlign=top;spacingLeft=4;spacingRight=4;whiteSpace=wrap;overflow=hidden;rotatable=0;points=[[0,0.5],[1,0.5]];portConstraint=eastwest;" parent="17acba5748e5396b-20" vertex="1">
          <mxGeometry y="26" width="250" height="154" as="geometry" />
        </mxCell>
        <mxCell id="17acba5748e5396b-30" value="&lt;font style=&quot;font-size: 12px;&quot; face=&quot;Helvetica&quot;&gt;JobDetails&lt;/font&gt;" style="swimlane;html=1;fontStyle=0;childLayout=stackLayout;horizontal=1;startSize=26;fillColor=none;horizontalStack=0;resizeParent=1;resizeLast=0;collapsible=1;marginBottom=0;swimlaneFillColor=#ffffff;rounded=0;shadow=0;comic=0;labelBackgroundColor=none;strokeWidth=1;fontFamily=Verdana;fontSize=10;align=center;" parent="1" vertex="1">
          <mxGeometry x="540" y="280" width="250" height="230" as="geometry" />
        </mxCell>
        <mxCell id="17acba5748e5396b-31" value="- title: String&lt;div&gt;- company: String&lt;/div&gt;&lt;div&gt;- City: String&lt;/div&gt;&lt;div&gt;- State: String&lt;/div&gt;&lt;div&gt;- costOfLivingIndex: double&lt;/div&gt;&lt;div&gt;- yearlySalary: double&lt;/div&gt;&lt;div&gt;- yearlyBonus: double&lt;/div&gt;&lt;div&gt;- tuitionReimbursement: double&lt;/div&gt;&lt;div&gt;- healthInsurance: double&lt;/div&gt;&lt;div&gt;- employeeProduct/serviceDiscount: double&lt;/div&gt;&lt;div&gt;- childAdoptionAssistance: double&lt;/div&gt;&lt;div&gt;+ getAdjustedSalary(): double&lt;/div&gt;&lt;div&gt;+ getAdjustedBonus(): double&lt;/div&gt;" style="text;html=1;strokeColor=none;fillColor=none;align=left;verticalAlign=top;spacingLeft=4;spacingRight=4;whiteSpace=wrap;overflow=hidden;rotatable=0;points=[[0,0.5],[1,0.5]];portConstraint=eastwest;" parent="17acba5748e5396b-30" vertex="1">
          <mxGeometry y="26" width="250" height="204" as="geometry" />
        </mxCell>
        <mxCell id="17acba5748e5396b-44" value="&lt;font style=&quot;font-size: 12px;&quot; face=&quot;Helvetica&quot;&gt;JobScoreCalculator&lt;/font&gt;" style="swimlane;html=1;fontStyle=0;childLayout=stackLayout;horizontal=1;startSize=26;fillColor=none;horizontalStack=0;resizeParent=1;resizeLast=0;collapsible=1;marginBottom=0;swimlaneFillColor=#ffffff;rounded=0;shadow=0;comic=0;labelBackgroundColor=none;strokeWidth=1;fontFamily=Verdana;fontSize=10;align=center;" parent="1" vertex="1">
          <mxGeometry x="463" y="910" width="370" height="156" as="geometry" />
        </mxCell>
        <mxCell id="17acba5748e5396b-45" value="+ calculatesScore(Job: Job, settings: ComparisonSettings): double" style="text;html=1;strokeColor=none;fillColor=none;align=left;verticalAlign=top;spacingLeft=4;spacingRight=4;whiteSpace=wrap;overflow=hidden;rotatable=0;points=[[0,0.5],[1,0.5]];portConstraint=eastwest;" parent="17acba5748e5396b-44" vertex="1">
          <mxGeometry y="26" width="370" height="130" as="geometry" />
        </mxCell>
        <mxCell id="5d2195bd80daf111-1" value="&lt;font style=&quot;font-size: 12px;&quot; face=&quot;Helvetica&quot;&gt;JobComparator&lt;/font&gt;" style="swimlane;html=1;fontStyle=0;childLayout=stackLayout;horizontal=1;startSize=26;fillColor=none;horizontalStack=0;resizeParent=1;resizeLast=0;collapsible=1;marginBottom=0;swimlaneFillColor=#ffffff;rounded=0;shadow=0;comic=0;labelBackgroundColor=none;strokeWidth=1;fontFamily=Verdana;fontSize=10;align=center;" parent="1" vertex="1">
          <mxGeometry x="50" y="730" width="430" height="130" as="geometry" />
        </mxCell>
        <mxCell id="5d2195bd80daf111-2" value="+ rankJobs(jobs: List&amp;lt;Job&amp;gt;, settings: ComparisonSettings): List&amp;lt;Job&amp;gt;&lt;div&gt;+ compareJobs(Job1: job, Job2: job, settings: ComparisonSettings): ComparisonResults&lt;/div&gt;" style="text;html=1;strokeColor=none;fillColor=none;align=left;verticalAlign=top;spacingLeft=4;spacingRight=4;whiteSpace=wrap;overflow=hidden;rotatable=0;points=[[0,0.5],[1,0.5]];portConstraint=eastwest;" parent="5d2195bd80daf111-1" vertex="1">
          <mxGeometry y="26" width="430" height="74" as="geometry" />
        </mxCell>
        <mxCell id="5d2195bd80daf111-5" value="&lt;font style=&quot;font-size: 12px;&quot; face=&quot;Helvetica&quot;&gt;ComparisonSettings&lt;/font&gt;" style="swimlane;html=1;fontStyle=0;childLayout=stackLayout;horizontal=1;startSize=26;fillColor=none;horizontalStack=0;resizeParent=1;resizeLast=0;collapsible=1;marginBottom=0;swimlaneFillColor=#ffffff;rounded=0;shadow=0;comic=0;labelBackgroundColor=none;strokeWidth=1;fontFamily=Verdana;fontSize=10;align=center;" parent="1" vertex="1">
          <mxGeometry x="551" y="560" width="240" height="170" as="geometry" />
        </mxCell>
        <mxCell id="5d2195bd80daf111-6" value="- salaryWeight: int = 1&lt;div&gt;- bonusWeight: int = 1&lt;/div&gt;&lt;div&gt;- tuitionWeight: int = 1&lt;/div&gt;&lt;div&gt;- insuranceWeight: int = 1&lt;/div&gt;&lt;div&gt;- employeeDiscountWeight: int = 1&lt;/div&gt;&lt;div&gt;- childAssistanceWeight: int =1&lt;/div&gt;&lt;div&gt;+ getTotalScore(): int&lt;/div&gt;" style="text;html=1;strokeColor=none;fillColor=none;align=left;verticalAlign=top;spacingLeft=4;spacingRight=4;whiteSpace=wrap;overflow=hidden;rotatable=0;points=[[0,0.5],[1,0.5]];portConstraint=eastwest;" parent="5d2195bd80daf111-5" vertex="1">
          <mxGeometry y="26" width="240" height="144" as="geometry" />
        </mxCell>
        <mxCell id="5d2195bd80daf111-18" value="&lt;p style=&quot;margin:0px;margin-top:4px;text-align:center;&quot;&gt;&lt;i&gt;&amp;lt;&amp;lt;Job Comparison App&amp;gt;&amp;gt;&lt;/i&gt;&lt;br&gt;&lt;/p&gt;&lt;p style=&quot;margin:0px;margin-top:4px;text-align:center;&quot;&gt;&lt;i&gt;Interface&lt;/i&gt;&lt;/p&gt;&lt;p style=&quot;margin:0px;margin-top:4px;text-align:center;&quot;&gt;&lt;i&gt;---------------------------------------------------&lt;/i&gt;&lt;/p&gt;&lt;p style=&quot;margin:0px;margin-left:4px;&quot;&gt;+ startApp(): void&lt;/p&gt;&lt;p style=&quot;margin:0px;margin-left:4px;&quot;&gt;+ showMainMenu(): void&lt;br&gt;+ processCurrentJob(): void&lt;/p&gt;&lt;p style=&quot;margin:0px;margin-left:4px;&quot;&gt;+ processJobOffer(): void&lt;/p&gt;&lt;p style=&quot;margin:0px;margin-left:4px;&quot;&gt;+ processComparisonSettings(): void&lt;/p&gt;&lt;p style=&quot;margin:0px;margin-left:4px;&quot;&gt;+ processJobComparison(): void&lt;/p&gt;" style="verticalAlign=top;align=left;overflow=fill;fontSize=12;fontFamily=Helvetica;html=1;rounded=0;shadow=0;comic=0;labelBackgroundColor=none;strokeWidth=1" parent="1" vertex="1">
          <mxGeometry x="36" y="80" width="204" height="200" as="geometry" />
        </mxCell>
        <mxCell id="wpZXHxEVDuKEj6VhSZ7Y-1" value="" style="endArrow=open;startArrow=open;html=1;rounded=0;startFill=0;dashed=1;endFill=0;exitX=-0.01;exitY=0.343;exitDx=0;exitDy=0;exitPerimeter=0;" edge="1" parent="1" source="17acba5748e5396b-21">
          <mxGeometry width="50" height="50" relative="1" as="geometry">
            <mxPoint x="230" y="160" as="sourcePoint" />
            <mxPoint x="240" y="160" as="targetPoint" />
            <Array as="points" />
          </mxGeometry>
        </mxCell>
        <mxCell id="wpZXHxEVDuKEj6VhSZ7Y-2" value="" style="endArrow=none;dashed=1;html=1;dashPattern=1 3;strokeWidth=2;rounded=0;" edge="1" parent="1" source="5d2195bd80daf111-10">
          <mxGeometry width="50" height="50" relative="1" as="geometry">
            <mxPoint x="439.2818888888892" y="250" as="sourcePoint" />
            <mxPoint x="430.72333333333347" y="480" as="targetPoint" />
          </mxGeometry>
        </mxCell>
        <mxCell id="wpZXHxEVDuKEj6VhSZ7Y-3" value="" style="endArrow=none;dashed=1;html=1;dashPattern=1 3;strokeWidth=2;rounded=0;exitX=0.196;exitY=0.994;exitDx=0;exitDy=0;exitPerimeter=0;" edge="1" parent="1" source="17acba5748e5396b-21">
          <mxGeometry width="50" height="50" relative="1" as="geometry">
            <mxPoint x="359" y="270" as="sourcePoint" />
            <mxPoint x="359" y="481" as="targetPoint" />
          </mxGeometry>
        </mxCell>
        <mxCell id="5d2195bd80daf111-10" value="&lt;p style=&quot;margin:0px;margin-top:4px;text-align:center;&quot;&gt;&lt;i&gt;SettingController&lt;/i&gt;&lt;/p&gt;&lt;hr size=&quot;1&quot;&gt;&lt;p style=&quot;margin:0px;margin-left:4px;&quot;&gt;- settings: ComparisonSettings&lt;/p&gt;&lt;p style=&quot;margin:0px;margin-left:4px;&quot;&gt;+ adjustSettings():&lt;/p&gt;&lt;p style=&quot;margin:0px;margin-left:4px;&quot;&gt;+ saveSettings():&lt;/p&gt;&lt;p style=&quot;margin:0px;margin-left:4px;&quot;&gt;+ getSettings():&amp;nbsp;&lt;span style=&quot;background-color: transparent; color: light-dark(rgb(0, 0, 0), rgb(255, 255, 255));&quot;&gt;ComparisonSettings&lt;/span&gt;&lt;/p&gt;" style="verticalAlign=top;align=left;overflow=fill;fontSize=12;fontFamily=Helvetica;html=1;rounded=0;shadow=0;comic=0;labelBackgroundColor=none;strokeWidth=1" parent="1" vertex="1">
          <mxGeometry x="240" y="480" width="210" height="170" as="geometry" />
        </mxCell>
        <mxCell id="wpZXHxEVDuKEj6VhSZ7Y-5" value="" style="endArrow=open;html=1;rounded=0;dashed=1;endFill=0;" edge="1" parent="1">
          <mxGeometry width="50" height="50" relative="1" as="geometry">
            <mxPoint x="361" y="400" as="sourcePoint" />
            <mxPoint x="539" y="400" as="targetPoint" />
          </mxGeometry>
        </mxCell>
        <mxCell id="wpZXHxEVDuKEj6VhSZ7Y-6" value="" style="endArrow=open;startArrow=open;html=1;rounded=0;startFill=0;dashed=1;endFill=0;" edge="1" parent="1">
          <mxGeometry width="50" height="50" relative="1" as="geometry">
            <mxPoint x="551" y="600" as="sourcePoint" />
            <mxPoint x="451" y="600" as="targetPoint" />
            <Array as="points">
              <mxPoint x="491" y="600" />
            </Array>
          </mxGeometry>
        </mxCell>
        <mxCell id="wpZXHxEVDuKEj6VhSZ7Y-9" value="" style="endArrow=open;html=1;rounded=0;dashed=1;endFill=0;entryX=0.473;entryY=-0.013;entryDx=0;entryDy=0;exitX=0.371;exitY=1;exitDx=0;exitDy=0;exitPerimeter=0;entryPerimeter=0;" edge="1" parent="1">
          <mxGeometry width="50" height="50" relative="1" as="geometry">
            <mxPoint x="640.04" y="731" as="sourcePoint" />
            <mxPoint x="641.9000000000001" y="909.05" as="targetPoint" />
            <Array as="points" />
          </mxGeometry>
        </mxCell>
        <mxCell id="wpZXHxEVDuKEj6VhSZ7Y-10" value="&lt;font style=&quot;font-size: 12px;&quot; face=&quot;Helvetica&quot;&gt;JobComparisonResults&lt;/font&gt;" style="swimlane;html=1;fontStyle=0;childLayout=stackLayout;horizontal=1;startSize=26;fillColor=none;horizontalStack=0;resizeParent=1;resizeLast=0;collapsible=1;marginBottom=0;swimlaneFillColor=#ffffff;rounded=0;shadow=0;comic=0;labelBackgroundColor=none;strokeWidth=1;fontFamily=Verdana;fontSize=10;align=center;" vertex="1" parent="1">
          <mxGeometry x="45" y="942" width="240" height="128" as="geometry" />
        </mxCell>
        <mxCell id="wpZXHxEVDuKEj6VhSZ7Y-11" value="- job1: Job&lt;div&gt;- job2: Job&lt;/div&gt;&lt;div&gt;- scoreJob1: double&lt;/div&gt;&lt;div&gt;- scoreJob2: double&lt;/div&gt;&lt;div&gt;- results: Map&amp;lt;String, Double&amp;gt;&lt;/div&gt;&lt;div&gt;+ displayComparisonTable(): void&lt;/div&gt;" style="text;html=1;strokeColor=none;fillColor=none;align=left;verticalAlign=top;spacingLeft=4;spacingRight=4;whiteSpace=wrap;overflow=hidden;rotatable=0;points=[[0,0.5],[1,0.5]];portConstraint=eastwest;" vertex="1" parent="wpZXHxEVDuKEj6VhSZ7Y-10">
          <mxGeometry y="26" width="240" height="94" as="geometry" />
        </mxCell>
        <mxCell id="wpZXHxEVDuKEj6VhSZ7Y-12" value="" style="endArrow=open;html=1;rounded=0;dashed=1;endFill=0;" edge="1" parent="1">
          <mxGeometry width="50" height="50" relative="1" as="geometry">
            <mxPoint x="460" y="1000" as="sourcePoint" />
            <mxPoint x="284" y="1000" as="targetPoint" />
            <Array as="points" />
          </mxGeometry>
        </mxCell>
        <mxCell id="wpZXHxEVDuKEj6VhSZ7Y-13" value="" style="endArrow=open;html=1;rounded=0;dashed=1;endFill=0;" edge="1" parent="1">
          <mxGeometry width="50" height="50" relative="1" as="geometry">
            <mxPoint x="160.5" y="883" as="sourcePoint" />
            <mxPoint x="161" y="943" as="targetPoint" />
            <Array as="points">
              <mxPoint x="160.5" y="863" />
            </Array>
          </mxGeometry>
        </mxCell>
        <mxCell id="wpZXHxEVDuKEj6VhSZ7Y-15" value="" style="endArrow=open;html=1;rounded=0;dashed=1;endFill=0;" edge="1" parent="1">
          <mxGeometry width="50" height="50" relative="1" as="geometry">
            <mxPoint x="360" y="650" as="sourcePoint" />
            <mxPoint x="360" y="730" as="targetPoint" />
            <Array as="points" />
          </mxGeometry>
        </mxCell>
      </root>
    </mxGraphModel>
  </diagram>
</mxfile>
